<?xml version="1.0" standalone="no"?>
 <!DOCTYPE svg PUBLIC "-//W3C//DTD SVG 1.1//EN" 
 "http://www.w3.org/Graphics/SVG/1.1/DTD/svg11.dtd"> 
<svg xmlns="http://www.w3.org/2000/svg" version="1.1" 
    width="6.2149228cm" height="8.4454746cm" viewBox="0 0 17860 24270 ">
<title>SVG Picture created as TQFP44_DIL-brd.svg date 2017/01/07 21:25:00 </title>
  <desc>Picture generated by PCBNEW </desc>
<g style="fill:#000000; fill-opacity:1;stroke:#000000; stroke-opacity:1;
stroke-linecap:round; stroke-linejoin:round; "
 transform="translate(0 0) scale(1 1)">
</g>
<g style="fill:#000000; fill-opacity:0.0; 
stroke:#000000; stroke-width:-0.000393701; stroke-opacity:1; 
stroke-linecap:round; stroke-linejoin:round;">
</g>
<g style="fill:#000000; fill-opacity:0.0; 
stroke:#000000; stroke-width:118.11; stroke-opacity:1; 
stroke-linecap:round; stroke-linejoin:round;">
<path d="M15095 12258
L15095 12651
" />
<path d="M15236 12033
L15377 12455
L15011 12455
" />
<path d="M14533 12258
L14533 12651
" />
<path d="M14674 12033
L14814 12455
L14449 12455
" />
<path d="M15405 2061
L15039 2061
L15236 2286
L15152 2286
L15095 2314
L15067 2342
L15039 2398
L15039 2539
L15067 2595
L15095 2623
L15152 2651
L15320 2651
L15377 2623
L15405 2595
" />
<path d="M14533 2258
L14533 2651
" />
<path d="M14674 2033
L14814 2455
L14449 2455
" />
<path d="M3405 2061
L3039 2061
L3236 2286
L3152 2286
L3095 2314
L3067 2342
L3039 2398
L3039 2539
L3067 2595
L3095 2623
L3152 2651
L3320 2651
L3377 2623
L3405 2595
" />
<path d="M2842 2061
L2477 2061
L2674 2286
L2589 2286
L2533 2314
L2505 2342
L2477 2398
L2477 2539
L2505 2595
L2533 2623
L2589 2651
L2758 2651
L2814 2623
L2842 2595
" />
<path d="M3377 12117
L3349 12089
L3292 12061
L3152 12061
L3095 12089
L3067 12117
L3039 12173
L3039 12230
L3067 12314
L3405 12651
L3039 12651
" />
<path d="M2842 12061
L2477 12061
L2674 12286
L2589 12286
L2533 12314
L2505 12342
L2477 12398
L2477 12539
L2505 12595
L2533 12623
L2589 12651
L2758 12651
L2814 12623
L2842 12595
" />
<path d="M3377 13117
L3349 13089
L3292 13061
L3152 13061
L3095 13089
L3067 13117
L3039 13173
L3039 13230
L3067 13314
L3405 13651
L3039 13651
" />
<path d="M2814 13117
L2786 13089
L2730 13061
L2589 13061
L2533 13089
L2505 13117
L2477 13173
L2477 13230
L2505 13314
L2842 13651
L2477 13651
" />
<path d="M3039 23651
L3377 23651
" />
<path d="M3208 23651
L3208 23061
L3264 23145
L3320 23202
L3377 23230
" />
<path d="M2814 23117
L2786 23089
L2730 23061
L2589 23061
L2533 23089
L2505 23117
L2477 23173
L2477 23230
L2505 23314
L2842 23651
L2477 23651
" />
<path d="M15039 23651
L15377 23651
" />
<path d="M15208 23651
L15208 23061
L15264 23145
L15320 23202
L15377 23230
" />
<path d="M14477 23651
L14814 23651
" />
<path d="M14645 23651
L14645 23061
L14702 23145
L14758 23202
L14814 23230
" />
<path d="M14758 13651
L15095 13651
" />
<path d="M14927 13651
L14927 13061
L14983 13145
L15039 13202
L15095 13230
" />
</g>
<g style="fill:#000000; fill-opacity:0.0; 
stroke:#000000; stroke-width:0; stroke-opacity:1; 
stroke-linecap:round; stroke-linejoin:round;">
</g>
<g style="fill:#000000; fill-opacity:1.0; 
stroke:#000000; stroke-width:0; stroke-opacity:1; 
stroke-linecap:round; stroke-linejoin:round;">
<polyline style="fill-rule:evenodd;"
points="4327,2724
4327,2044
3527,2044
3527,2724
4327,2724
" /> 
</g>
<g style="fill:#000000; fill-opacity:1.0; 
stroke:#000000; stroke-width:680; stroke-opacity:1; 
stroke-linecap:round; stroke-linejoin:round;">
</g>
<g style="fill:#000000; fill-opacity:0.0; 
stroke:#000000; stroke-width:680; stroke-opacity:1; 
stroke-linecap:round; stroke-linejoin:round;">
<path d="M3987 3384
L3867 3384
" />
<path d="M3987 4384
L3867 4384
" />
<path d="M3987 5384
L3867 5384
" />
<path d="M3987 6384
L3867 6384
" />
<path d="M3987 7384
L3867 7384
" />
<path d="M3987 8384
L3867 8384
" />
<path d="M3987 9384
L3867 9384
" />
<path d="M3987 10384
L3867 10384
" />
<path d="M3987 11384
L3867 11384
" />
<path d="M3987 12384
L3867 12384
" />
<path d="M3987 13384
L3867 13384
" />
<path d="M3987 14384
L3867 14384
" />
<path d="M3987 15384
L3867 15384
" />
<path d="M3987 16384
L3867 16384
" />
<path d="M3987 17384
L3867 17384
" />
<path d="M3987 18384
L3867 18384
" />
<path d="M3987 19384
L3867 19384
" />
<path d="M3987 20384
L3867 20384
" />
<path d="M3987 21384
L3867 21384
" />
<path d="M3987 22384
L3867 22384
" />
<path d="M3987 23384
L3867 23384
" />
</g>
<g style="fill:#000000; fill-opacity:0.0; 
stroke:#000000; stroke-width:0; stroke-opacity:1; 
stroke-linecap:round; stroke-linejoin:round;">
</g>
<g style="fill:#000000; fill-opacity:1.0; 
stroke:#000000; stroke-width:0; stroke-opacity:1; 
stroke-linecap:round; stroke-linejoin:round;">
<polyline style="fill-rule:evenodd;"
points="11814,13200
11969,13044
11524,12599
11368,12755
11814,13200
" /> 
<polyline style="fill-rule:evenodd;"
points="11591,13423
11747,13267
11301,12821
11145,12977
11591,13423
" /> 
<polyline style="fill-rule:evenodd;"
points="11368,13645
11524,13490
11079,13044
10923,13200
11368,13645
" /> 
<polyline style="fill-rule:evenodd;"
points="11145,13868
11301,13712
10856,13267
10700,13423
11145,13868
" /> 
<polyline style="fill-rule:evenodd;"
points="10923,14091
11079,13935
10633,13490
10477,13645
10923,14091
" /> 
<polyline style="fill-rule:evenodd;"
points="10700,14314
10856,14158
10411,13712
10255,13868
10700,14314
" /> 
<polyline style="fill-rule:evenodd;"
points="10477,14536
10633,14380
10188,13935
10032,14091
10477,14536
" /> 
<polyline style="fill-rule:evenodd;"
points="10255,14759
10411,14603
9965,14158
9809,14314
10255,14759
" /> 
<polyline style="fill-rule:evenodd;"
points="10032,14982
10188,14826
9742,14380
9586,14536
10032,14982
" /> 
<polyline style="fill-rule:evenodd;"
points="9809,15204
9965,15049
9520,14603
9364,14759
9809,15204
" /> 
<polyline style="fill-rule:evenodd;"
points="9586,15427
9742,15271
9297,14826
9141,14982
9586,15427
" /> 
<polyline style="fill-rule:evenodd;"
points="8111,15271
8267,15427
8712,14982
8556,14826
8111,15271
" /> 
<polyline style="fill-rule:evenodd;"
points="7888,15049
8044,15204
8490,14759
8334,14603
7888,15049
" /> 
<polyline style="fill-rule:evenodd;"
points="7666,14826
7822,14982
8267,14536
8111,14380
7666,14826
" /> 
<polyline style="fill-rule:evenodd;"
points="7443,14603
7599,14759
8044,14314
7888,14158
7443,14603
" /> 
<polyline style="fill-rule:evenodd;"
points="7220,14380
7376,14536
7822,14091
7666,13935
7220,14380
" /> 
<polyline style="fill-rule:evenodd;"
points="6997,14158
7153,14314
7599,13868
7443,13712
6997,14158
" /> 
<polyline style="fill-rule:evenodd;"
points="6775,13935
6931,14091
7376,13645
7220,13490
6775,13935
" /> 
<polyline style="fill-rule:evenodd;"
points="6552,13712
6708,13868
7153,13423
6997,13267
6552,13712
" /> 
<polyline style="fill-rule:evenodd;"
points="6329,13490
6485,13645
6931,13200
6775,13044
6329,13490
" /> 
<polyline style="fill-rule:evenodd;"
points="6107,13267
6263,13423
6708,12977
6552,12821
6107,13267
" /> 
<polyline style="fill-rule:evenodd;"
points="5884,13044
6040,13200
6485,12755
6329,12599
5884,13044
" /> 
<polyline style="fill-rule:evenodd;"
points="6329,12170
6485,12014
6040,11569
5884,11725
6329,12170
" /> 
<polyline style="fill-rule:evenodd;"
points="6552,11947
6708,11791
6263,11346
6107,11502
6552,11947
" /> 
<polyline style="fill-rule:evenodd;"
points="6775,11725
6931,11569
6485,11123
6329,11279
6775,11725
" /> 
<polyline style="fill-rule:evenodd;"
points="6997,11502
7153,11346
6708,10901
6552,11056
6997,11502
" /> 
<polyline style="fill-rule:evenodd;"
points="7220,11279
7376,11123
6931,10678
6775,10834
7220,11279
" /> 
<polyline style="fill-rule:evenodd;"
points="7443,11056
7599,10901
7153,10455
6997,10611
7443,11056
" /> 
<polyline style="fill-rule:evenodd;"
points="7666,10834
7822,10678
7376,10232
7220,10388
7666,10834
" /> 
<polyline style="fill-rule:evenodd;"
points="7888,10611
8044,10455
7599,10010
7443,10166
7888,10611
" /> 
<polyline style="fill-rule:evenodd;"
points="8111,10388
8267,10232
7822,9787
7666,9943
8111,10388
" /> 
<polyline style="fill-rule:evenodd;"
points="8334,10166
8490,10010
8044,9564
7888,9720
8334,10166
" /> 
<polyline style="fill-rule:evenodd;"
points="8556,9943
8712,9787
8267,9342
8111,9497
8556,9943
" /> 
<polyline style="fill-rule:evenodd;"
points="9141,9787
9297,9943
9742,9497
9586,9342
9141,9787
" /> 
<polyline style="fill-rule:evenodd;"
points="9364,10010
9520,10166
9965,9720
9809,9564
9364,10010
" /> 
<polyline style="fill-rule:evenodd;"
points="9586,10232
9742,10388
10188,9943
10032,9787
9586,10232
" /> 
<polyline style="fill-rule:evenodd;"
points="9809,10455
9965,10611
10411,10166
10255,10010
9809,10455
" /> 
<polyline style="fill-rule:evenodd;"
points="10032,10678
10188,10834
10633,10388
10477,10232
10032,10678
" /> 
<polyline style="fill-rule:evenodd;"
points="10255,10901
10411,11056
10856,10611
10700,10455
10255,10901
" /> 
<polyline style="fill-rule:evenodd;"
points="10477,11123
10633,11279
11079,10834
10923,10678
10477,11123
" /> 
<polyline style="fill-rule:evenodd;"
points="10700,11346
10856,11502
11301,11056
11145,10901
10700,11346
" /> 
<polyline style="fill-rule:evenodd;"
points="10923,11569
11079,11725
11524,11279
11368,11123
10923,11569
" /> 
<polyline style="fill-rule:evenodd;"
points="11145,11791
11301,11947
11747,11502
11591,11346
11145,11791
" /> 
<polyline style="fill-rule:evenodd;"
points="11368,12014
11524,12170
11969,11725
11814,11569
11368,12014
" /> 
<polyline style="fill-rule:evenodd;"
points="14327,2724
14327,2044
13527,2044
13527,2724
14327,2724
" /> 
</g>
<g style="fill:#000000; fill-opacity:1.0; 
stroke:#000000; stroke-width:680; stroke-opacity:1; 
stroke-linecap:round; stroke-linejoin:round;">
</g>
<g style="fill:#000000; fill-opacity:0.0; 
stroke:#000000; stroke-width:680; stroke-opacity:1; 
stroke-linecap:round; stroke-linejoin:round;">
<path d="M13987 3384
L13867 3384
" />
<path d="M13987 4384
L13867 4384
" />
<path d="M13987 5384
L13867 5384
" />
<path d="M13987 6384
L13867 6384
" />
<path d="M13987 7384
L13867 7384
" />
<path d="M13987 8384
L13867 8384
" />
<path d="M13987 9384
L13867 9384
" />
<path d="M13987 10384
L13867 10384
" />
<path d="M13987 11384
L13867 11384
" />
<path d="M13987 12384
L13867 12384
" />
<path d="M13987 13384
L13867 13384
" />
<path d="M13987 14384
L13867 14384
" />
<path d="M13987 15384
L13867 15384
" />
<path d="M13987 16384
L13867 16384
" />
<path d="M13987 17384
L13867 17384
" />
<path d="M13987 18384
L13867 18384
" />
<path d="M13987 19384
L13867 19384
" />
<path d="M13987 20384
L13867 20384
" />
<path d="M13987 21384
L13867 21384
" />
<path d="M13987 22384
L13867 22384
" />
<path d="M13987 23384
L13867 23384
" />
</g>
<g style="fill:#000000; fill-opacity:0.0; 
stroke:#000000; stroke-width:98.4252; stroke-opacity:1; 
stroke-linecap:round; stroke-linejoin:round;">
<path d="M8189 14962
L7507 15644
" />
<path d="M7507 18544
L3927 22384
" />
<path d="M7507 15644
L7507 18544
" />
<path d="M13232 12384
L13927 12384
" />
<path d="M13062 12214
L13232 12384
" />
<path d="M13062 11873
L13062 12214
" />
<path d="M12655 11466
L13062 11873
" />
<path d="M12105 11466
L12655 11466
" />
<path d="M11702 11869
L12105 11466
" />
<path d="M11669 11869
L11702 11869
" />
<path d="M13266 11384
L13927 11384
" />
<path d="M12655 10773
L13266 11384
" />
<path d="M12292 10773
L12655 10773
" />
<path d="M11446 11619
L12292 10773
" />
<path d="M11446 11647
L11446 11619
" />
<path d="M4529 12384
L3927 12384
" />
<path d="M5391 11522
L4529 12384
" />
<path d="M5721 11522
L5391 11522
" />
<path d="M6068 11869
L5721 11522
" />
<path d="M6185 11869
L6068 11869
" />
<path d="M6185 12899
L6088 12899
" />
<path d="M6088 12899
L5603 13384
" />
<path d="M5603 13384
L3927 13384
" />
<path d="M6185 11869
L6092 11869
" />
<path d="M11446 11647
L11462 11647
" />
<path d="M6185 11869
L6095 11869
" />
<path d="M6407 11647
L6405 11647
" />
<path d="M6405 11647
L5833 11074
" />
<path d="M4779 11384
L3927 11384
" />
<path d="M5089 11074
L4779 11384
" />
<path d="M5833 11074
L5089 11074
" />
<path d="M11446 11647
L11508 11647
" />
<path d="M6185 11869
L6185 11860
" />
<path d="M6407 11647
L6373 11647
" />
<path d="M6407 11647
L6403 11647
" />
<path d="M3987 11324
L3927 11384
" />
<path d="M6185 11869
L6158 11869
" />
<path d="M6158 11869
L5985 11696
" />
<path d="M7966 10088
L7966 10069
" />
<path d="M7966 10069
L7017 9119
" />
<path d="M6377 4384
L3927 4384
" />
<path d="M7017 5024
L6377 4384
" />
<path d="M7017 9119
L7017 5024
" />
<path d="M7298 10756
L7298 10741
" />
<path d="M7298 10741
L5219 8661
" />
<path d="M4767 7384
L3927 7384
" />
<path d="M5219 7836
L4767 7384
" />
<path d="M5219 8661
L5219 7836
" />
<path d="M7075 10978
L7075 10958
" />
<path d="M7075 10958
L4502 8384
" />
<path d="M4502 8384
L3927 8384
" />
<path d="M6853 11201
L6835 11201
" />
<path d="M6835 11201
L5018 9384
" />
<path d="M5018 9384
L3927 9384
" />
<path d="M7075 10978
L7075 10978
" />
<path d="M7075 10978
L7046 10978
" />
<path d="M6853 11201
L6849 11201
" />
<path d="M6185 12899
L6151 12899
" />
<path d="M10778 10978
L10778 10953
" />
<path d="M10778 10953
L12567 9164
" />
<path d="M12787 8384
L13927 8384
" />
<path d="M12567 8604
L12787 8384
" />
<path d="M12567 9164
L12567 8604
" />
<path d="M11669 12899
L11682 12899
" />
<path d="M11682 12899
L12167 13384
" />
<path d="M12167 13384
L13927 13384
" />
<path d="M9442 15126
L9442 15149
" />
<path d="M9442 15149
L9887 15594
" />
<path d="M9887 15594
L9887 22524
" />
<path d="M9887 22524
L10747 23384
" />
<path d="M10747 23384
L13927 23384
" />
<path d="M9664 14904
L9664 14952
" />
<path d="M9664 14952
L10257 15544
" />
<path d="M10257 15544
L10257 21514
" />
<path d="M10257 21514
L11127 22384
" />
<path d="M11127 22384
L13927 22384
" />
<path d="M9887 14681
L9887 14725
" />
<path d="M9887 14725
L10577 15414
" />
<path d="M10577 15414
L10577 20734
" />
<path d="M10577 20734
L11227 21384
" />
<path d="M11227 21384
L13927 21384
" />
<path d="M10110 14458
L10110 14497
" />
<path d="M10110 14497
L11007 15394
" />
<path d="M11007 15394
L11007 19604
" />
<path d="M11007 19604
L11787 20384
" />
<path d="M11787 20384
L13927 20384
" />
<path d="M10333 14236
L10333 14280
" />
<path d="M10333 14280
L11357 15304
" />
<path d="M11357 15304
L11357 18594
" />
<path d="M11357 18594
L12147 19384
" />
<path d="M12147 19384
L13927 19384
" />
<path d="M13927 18384
L12237 18384
" />
<path d="M11757 17904
L12227 18374
" />
<path d="M11757 15324
L11757 17904
" />
<path d="M11757 15324
L10555 14123
" />
<path d="M12237 18384
L12227 18374
" />
<path d="M10555 14013
L10555 14123
" />
<path d="M10778 13790
L10778 13836
" />
<path d="M10778 13836
L12137 15194
" />
<path d="M12137 15194
L12137 17044
" />
<path d="M12137 17044
L12477 17384
" />
<path d="M12477 17384
L13927 17384
" />
<path d="M11001 13567
L11001 13638
" />
<path d="M11001 13638
L12687 15324
" />
<path d="M12687 15324
L12687 16094
" />
<path d="M12687 16094
L12977 16384
" />
<path d="M12977 16384
L13927 16384
" />
<path d="M11223 13345
L11223 13461
" />
<path d="M11223 13461
L12957 15194
" />
<path d="M12957 15194
L13737 15194
" />
<path d="M13737 15194
L13927 15384
" />
<path d="M11446 13122
L11454 13122
" />
<path d="M11454 13122
L12717 14384
" />
<path d="M12717 14384
L13927 14384
" />
<path d="M11669 11869
L11672 11869
" />
<path d="M11446 11647
L11454 11647
" />
<path d="M11669 11869
L11712 11869
" />
<path d="M11446 11647
L11544 11647
" />
<path d="M11223 11424
L11237 11424
" />
<path d="M11237 11424
L12277 10384
" />
<path d="M12277 10384
L13927 10384
" />
<path d="M11001 11201
L11040 11201
" />
<path d="M11040 11201
L12857 9384
" />
<path d="M12857 9384
L13927 9384
" />
<path d="M10778 10978
L10863 10978
" />
<path d="M10555 10756
L10625 10756
" />
<path d="M10625 10756
L12197 9184
" />
<path d="M12197 9184
L12197 7864
" />
<path d="M12197 7864
L12677 7384
" />
<path d="M12677 7384
L13927 7384
" />
<path d="M10333 10533
L10368 10533
" />
<path d="M10368 10533
L11687 9214
" />
<path d="M11687 9214
L11687 7254
" />
<path d="M11687 7254
L12557 6384
" />
<path d="M12557 6384
L13927 6384
" />
<path d="M10110 10310
L10151 10310
" />
<path d="M10151 10310
L11137 9324
" />
<path d="M11137 9324
L11137 5934
" />
<path d="M11137 5934
L11687 5384
" />
<path d="M11687 5384
L13927 5384
" />
<path d="M9887 10088
L9887 10024
" />
<path d="M9887 10024
L10657 9254
" />
<path d="M11057 4384
L13927 4384
" />
<path d="M10657 4784
L11057 4384
" />
<path d="M10657 9254
L10657 4784
" />
<path d="M9664 9865
L9664 9787
" />
<path d="M9664 9787
L10297 9154
" />
<path d="M10297 9154
L10297 3894
" />
<path d="M10297 3894
L10807 3384
" />
<path d="M10807 3384
L13927 3384
" />
<path d="M9442 9642
L9442 9629
" />
<path d="M9442 9629
L9837 9234
" />
<path d="M11047 2414
L13897 2414
" />
<path d="M9837 3624
L11047 2414
" />
<path d="M9837 9234
L9837 3624
" />
<path d="M13897 2414
L13927 2384
" />
<path d="M9887 10088
L9983 10088
" />
<path d="M9664 9865
L9664 9847
" />
<path d="M9442 9642
L9442 9529
" />
<path d="M6853 13567
L6853 13608
" />
<path d="M6853 13608
L4727 15734
" />
<path d="M4407 16384
L3927 16384
" />
<path d="M4727 16064
L4407 16384
" />
<path d="M4727 15734
L4727 16064
" />
<path d="M7075 13790
L7075 13806
" />
<path d="M7075 13806
L5177 15704
" />
<path d="M5177 16134
L3927 17384
" />
<path d="M5177 15704
L5177 16134
" />
<path d="M6853 13567
L6853 13598
" />
<path d="M6630 13345
L6630 13381
" />
<path d="M6630 13381
L4627 15384
" />
<path d="M4627 15384
L3927 15384
" />
<path d="M7298 10756
L7298 10676
" />
<path d="M7298 10756
L7298 10706
" />
<path d="M7075 10978
L7061 10978
" />
<path d="M6853 11201
L6824 11201
" />
<path d="M6185 12899
L6172 12899
" />
<path d="M6407 13122
L6369 13122
" />
<path d="M6369 13122
L5107 14384
" />
<path d="M5107 14384
L3927 14384
" />
<path d="M6630 13345
L6586 13345
" />
<path d="M6853 13567
L6844 13567
" />
<path d="M6185 11869
L6162 11869
" />
<path d="M6407 11647
L6407 11645
" />
<path d="M8412 15126
L8412 15139
" />
<path d="M8412 15139
L7947 15604
" />
<path d="M7947 15604
L7947 19104
" />
<path d="M7947 19104
L3927 23384
" />
<path d="M8189 14904
L8189 14962
" />
<path d="M7966 14681
L7966 14735
" />
<path d="M7966 14735
L7097 15604
" />
<path d="M7097 15604
L7097 17954
" />
<path d="M7097 17954
L3927 21384
" />
<path d="M7744 14458
L7733 14458
" />
<path d="M7733 14458
L6457 15734
" />
<path d="M6457 15734
L6457 17594
" />
<path d="M6457 17594
L3927 20384
" />
<path d="M7521 14236
L7505 14236
" />
<path d="M7505 14236
L5967 15774
" />
<path d="M5967 15774
L5967 17084
" />
<path d="M5967 17084
L3927 19384
" />
<path d="M7298 14013
L5567 15744
" />
<path d="M5567 16484
L3927 18384
" />
<path d="M5567 15744
L5567 16484
" />
<path d="M7075 13790
L7011 13790
" />
<path d="M6853 13567
L6853 13628
" />
<path d="M6630 13345
L6630 13361
" />
<path d="M6407 13122
L6407 13164
" />
<path d="M6407 13122
L6407 13174
" />
<path d="M6407 13122
L6407 13144
" />
<path d="M6630 13345
L6630 13411
" />
<path d="M6407 13122
L6399 13122
" />
<path d="M6185 12899
L6185 12916
" />
<path d="M6630 13345
L6616 13345
" />
<path d="M6407 13122
L6407 13154
" />
<path d="M7521 10533
L7521 10508
" />
<path d="M7521 10508
L5827 8794
" />
<path d="M5167 6384
L3927 6384
" />
<path d="M5827 7024
L5167 6384
" />
<path d="M5827 8794
L5827 7024
" />
<path d="M7075 10978
L7041 10978
" />
<path d="M8412 9642
L8398 9553
" />
<path d="M8398 9553
L8054 9208
" />
<path d="M8054 9208
L8067 3584
" />
<path d="M8067 3584
L6867 2384
" />
<path d="M6867 2384
L3927 2384
" />
<path d="M6407 11647
L6379 11647
" />
<path d="M3957 11354
L3927 11384
" />
<path d="M6407 11647
L6407 11605
" />
<path d="M6630 11424
L6586 11424
" />
<path d="M6586 11424
L5547 10384
" />
<path d="M5547 10384
L3927 10384
" />
<path d="M6853 11201
L6784 11201
" />
<path d="M7075 10978
L7011 10958
" />
<path d="M7298 10756
L7248 10756
" />
<path d="M7521 10533
L7521 10558
" />
<path d="M7744 10310
L7733 10310
" />
<path d="M7733 10310
L6407 8984
" />
<path d="M6407 8984
L6407 5844
" />
<path d="M6407 5844
L5947 5384
" />
<path d="M5947 5384
L3927 5384
" />
<path d="M7966 10088
L7966 10064
" />
<path d="M8189 9865
L8177 9865
" />
<path d="M8177 9865
L7637 9324
" />
<path d="M7637 9324
L7637 4234
" />
<path d="M7637 4234
L6787 3384
" />
<path d="M6787 3384
L3927 3384
" />
</g>
<g style="fill:#000000; fill-opacity:1.0; 
stroke:#000000; stroke-width:100; stroke-opacity:1; 
stroke-linecap:round; stroke-linejoin:round;">
<polyline style="fill-rule:evenodd;"
points="8519,15679
8403,15757
8348,15768
8346,15770
8346,19104
8332,19175
8320,19245
8317,19251
8316,19257
8276,19317
8238,19378
4653,23194
4691,23384
4639,23648
4496,23863
13358,23863
13305,23784
10747,23784
10594,23753
10464,23667
9604,22807
9518,22677
9487,22524
9487,15764
9450,15757
9334,15679
8927,15272
8519,15679
" /> 
<polyline style="fill-rule:evenodd;"
points="10286,22359
10912,22985
13305,22985
13364,22896
13382,22884
13364,22872
13305,22784
11127,22784
10974,22753
10844,22667
10286,22108
10286,22359
" /> 
<polyline style="fill-rule:evenodd;"
points="14691,14384
14639,14648
14489,14872
14471,14884
14489,14896
14639,15120
14691,15384
14639,15648
14489,15872
14471,15884
14489,15896
14639,16120
14691,16384
14639,16648
14489,16872
14471,16884
14489,16896
14639,17120
14691,17384
14639,17648
14489,17872
14471,17884
14489,17896
14639,18120
14691,18384
14639,18648
14489,18872
14471,18884
14489,18896
14639,19120
14691,19384
14639,19648
14489,19872
14471,19884
14489,19896
14639,20120
14691,20384
14639,20648
14489,20872
14471,20884
14489,20896
14639,21120
14691,21384
14639,21648
14489,21872
14471,21884
14489,21896
14639,22120
14691,22384
14653,22580
15135,22580
15135,14284
14671,14284
14691,14384
" /> 
<polyline style="fill-rule:evenodd;"
points="2671,22580
3201,22580
3162,22384
3215,22120
3364,21896
3382,21884
3364,21872
3215,21648
3162,21384
3215,21120
3364,20896
3382,20884
3364,20872
3215,20648
3162,20384
3215,20120
3364,19896
3382,19884
3364,19872
3215,19648
3162,19384
3215,19120
3364,18896
3382,18884
3364,18872
3215,18648
3162,18384
3215,18120
3364,17896
3382,17884
3364,17872
3215,17648
3162,17384
3215,17120
3364,16896
3382,16884
3364,16872
3215,16648
3162,16384
3215,16120
3364,15896
3382,15884
3364,15872
3215,15648
3162,15384
3215,15120
3364,14896
3382,14884
3364,14872
3215,14648
3162,14384
3182,14284
2671,14284
2671,22580
" /> 
<polyline style="fill-rule:evenodd;"
points="11292,21985
13305,21985
13364,21896
13382,21884
13364,21872
13305,21784
11227,21784
11074,21753
11032,21725
11292,21985
" /> 
<polyline style="fill-rule:evenodd;"
points="10976,20569
11392,20985
13305,20985
13364,20896
13382,20884
13364,20872
13305,20784
11787,20784
11634,20753
11504,20667
10976,20138
10976,20569
" /> 
<polyline style="fill-rule:evenodd;"
points="11406,19439
11952,19985
13305,19985
13364,19896
13382,19884
13364,19872
13305,19784
12147,19784
11994,19753
11864,19667
11406,19208
11406,19439
" /> 
<polyline style="fill-rule:evenodd;"
points="12312,18985
13305,18985
13364,18896
13382,18884
13364,18872
13305,18784
12237,18784
12084,18753
12072,18745
12312,18985
" /> 
<polyline style="fill-rule:evenodd;"
points="12156,17739
12402,17985
13305,17985
13364,17896
13382,17884
13364,17872
13305,17784
12477,17784
12324,17753
12194,17667
12156,17628
12156,17739
" /> 
<polyline style="fill-rule:evenodd;"
points="12536,16879
12642,16985
13305,16985
13364,16896
13382,16884
13364,16872
13305,16784
12977,16784
12824,16753
12694,16667
12536,16508
12536,16879
" /> 
<polyline style="fill-rule:evenodd;"
points="13086,15929
13142,15985
13305,15985
13364,15896
13382,15884
13364,15872
13215,15648
13204,15594
13086,15594
13086,15929
" /> 
<polyline style="fill-rule:evenodd;"
points="4489,14872
4471,14884
4489,14896
4514,14933
4663,14784
4549,14784
4489,14872
" /> 
<polyline style="fill-rule:evenodd;"
points="13122,14795
13313,14795
13305,14784
13110,14784
13122,14795
" /> 
<polyline style="fill-rule:evenodd;"
points="8809,10195
8769,10222
8742,10262
8586,10418
8546,10445
8519,10485
8363,10641
8323,10667
8297,10707
8141,10863
8101,10890
8074,10930
7918,11086
7878,11113
7851,11153
7695,11309
7655,11336
7628,11376
7473,11531
7432,11558
7406,11598
7250,11754
7210,11781
7183,11821
7027,11977
6987,12004
6960,12044
6804,12200
6764,12226
6738,12266
6620,12384
6738,12502
6764,12542
6804,12569
6960,12725
6987,12765
7027,12792
7183,12948
7210,12988
7250,13014
7406,13170
7432,13210
7473,13237
7628,13393
7655,13433
7695,13460
7851,13616
7878,13656
7918,13683
8074,13839
8101,13879
8141,13905
8297,14061
8323,14101
8363,14128
8519,14284
8546,14324
8586,14351
8742,14507
8769,14547
8809,14573
8927,14691
9045,14573
9085,14547
9111,14507
9267,14351
9307,14324
9334,14284
9490,14128
9530,14101
9557,14061
9713,13905
9753,13879
9780,13839
9935,13683
9976,13656
10002,13616
10158,13460
10198,13433
10225,13393
10381,13237
10421,13210
10448,13170
10604,13014
10644,12988
10670,12948
10826,12792
10866,12765
10893,12725
11049,12569
11089,12542
11116,12502
11234,12384
11116,12266
11089,12226
11049,12200
10893,12044
10866,12004
10826,11977
10670,11821
10644,11781
10604,11754
10448,11598
10421,11558
10381,11531
10225,11376
10198,11336
10158,11309
10002,11153
9976,11113
9935,11086
9780,10930
9753,10890
9713,10863
9557,10707
9530,10667
9490,10641
9334,10485
9307,10445
9267,10418
9111,10262
9085,10222
9045,10195
8927,10077
8809,10195
" /> 
<polyline style="fill-rule:evenodd;"
points="4489,13872
4471,13884
4489,13896
4549,13985
4941,13985
5143,13784
4549,13784
4489,13872
" /> 
<polyline style="fill-rule:evenodd;"
points="12882,13985
13305,13985
13364,13896
13382,13884
13364,13872
13305,13784
12680,13784
12882,13985
" /> 
<polyline style="fill-rule:evenodd;"
points="4811,12667
4681,12753
4552,12779
4489,12872
4471,12884
4489,12896
4549,12985
5437,12985
5805,12617
5808,12615
6039,12384
5848,12194
5785,12152
5556,11922
4811,12667
" /> 
<polyline style="fill-rule:evenodd;"
points="12222,11977
11814,12384
12222,12792
12299,12908
12310,12963
12332,12985
13305,12985
13364,12896
13382,12884
13364,12872
13305,12784
13232,12784
13079,12753
12949,12667
12779,12497
12693,12367
12689,12346
12662,12214
12662,12039
12489,11866
12296,11866
12222,11977
" /> 
<polyline style="fill-rule:evenodd;"
points="4516,11833
4565,11784
4549,11784
4516,11833
" /> 
<polyline style="fill-rule:evenodd;"
points="14691,3384
14639,3648
14489,3872
14471,3884
14489,3896
14639,4120
14691,4384
14639,4648
14489,4872
14471,4884
14489,4896
14639,5120
14691,5384
14639,5648
14489,5872
14471,5884
14489,5896
14639,6120
14691,6384
14639,6648
14489,6872
14471,6884
14489,6896
14639,7120
14691,7384
14639,7648
14489,7872
14471,7884
14489,7896
14639,8120
14691,8384
14639,8648
14489,8872
14471,8884
14489,8896
14639,9120
14691,9384
14639,9648
14489,9872
14471,9884
14489,9896
14639,10120
14691,10384
14639,10648
14489,10872
14471,10884
14489,10896
14639,11120
14691,11384
14653,11580
15135,11580
15135,3284
14671,3284
14691,3384
" /> 
<polyline style="fill-rule:evenodd;"
points="2671,11580
3201,11580
3162,11384
3215,11120
3364,10896
3382,10884
3364,10872
3215,10648
3162,10384
3215,10120
3364,9896
3382,9884
3364,9872
3215,9648
3162,9384
3215,9120
3364,8896
3382,8884
3364,8872
3215,8648
3162,8384
3215,8120
3364,7896
3382,7884
3364,7872
3215,7648
3162,7384
3215,7120
3364,6896
3382,6884
3364,6872
3215,6648
3162,6384
3215,6120
3364,5896
3382,5884
3364,5872
3215,5648
3162,5384
3215,5120
3364,4896
3382,4884
3364,4872
3215,4648
3162,4384
3215,4120
3364,3896
3382,3884
3364,3872
3215,3648
3162,3384
3182,3284
2671,3284
2671,11580
" /> 
<polyline style="fill-rule:evenodd;"
points="4489,10872
4471,10884
4489,10896
4549,10985
4613,10985
4806,10792
4819,10784
4549,10784
4489,10872
" /> 
<polyline style="fill-rule:evenodd;"
points="13355,10909
13364,10896
13382,10884
13364,10872
13305,10784
13229,10784
13355,10909
" /> 
<polyline style="fill-rule:evenodd;"
points="4489,9872
4471,9884
4489,9896
4549,9985
5054,9985
4852,9784
4549,9784
4489,9872
" /> 
<polyline style="fill-rule:evenodd;"
points="12820,9985
13305,9985
13364,9896
13382,9884
13364,9872
13305,9784
13022,9784
12820,9985
" /> 
<polyline style="fill-rule:evenodd;"
points="4672,1985
6867,1985
7019,2016
7149,2102
8349,3302
8349,3302
8350,3303
8393,3367
8436,3432
8436,3432
8436,3432
8451,3508
8466,3584
8466,3585
8466,3585
8453,9043
8461,9050
8519,9089
8927,9497
9125,9298
9159,9247
9210,9213
9334,9089
9437,9020
9437,3624
9468,3472
9554,3342
10764,2132
10894,2046
11047,2015
13176,2015
13196,1913
4657,1913
4672,1985
" /> 
<polyline style="fill-rule:evenodd;"
points="12966,8985
13305,8985
13364,8896
13382,8884
13364,8872
13305,8784
12966,8784
12966,8985
" /> 
<polyline style="fill-rule:evenodd;"
points="4489,7872
4471,7884
4489,7896
4556,7996
4654,8016
4784,8102
4819,8138
4819,8002
4601,7784
4549,7784
4489,7872
" /> 
<polyline style="fill-rule:evenodd;"
points="12596,8030
12596,8041
12634,8016
12787,7985
13305,7985
13364,7896
13382,7884
13364,7872
13305,7784
12842,7784
12596,8030
" /> 
<polyline style="fill-rule:evenodd;"
points="4489,6872
4471,6884
4489,6896
4549,6985
4767,6985
4919,7016
5049,7102
5427,7481
5427,7193
5005,6784
4549,6784
4489,6872
" /> 
<polyline style="fill-rule:evenodd;"
points="12422,7084
12524,7016
12677,6985
13305,6985
13364,6896
13382,6884
13364,6872
13305,6784
12722,6784
12422,7084
" /> 
<polyline style="fill-rule:evenodd;"
points="11536,6100
11536,6841
12274,6102
12404,6016
12557,5985
13305,5985
13364,5896
13382,5884
13364,5872
13305,5784
11852,5784
11536,6100
" /> 
<polyline style="fill-rule:evenodd;"
points="4489,5872
4471,5884
4489,5896
4549,5985
5167,5985
5240,6000
5314,6013
5316,6015
5319,6016
5382,6057
5445,6098
6007,6644
6007,6010
5781,5784
4549,5784
4489,5872
" /> 
<polyline style="fill-rule:evenodd;"
points="4489,4872
4471,4884
4489,4896
4549,4985
5947,4985
6099,5016
6229,5102
6617,5491
6617,5190
6211,4784
4549,4784
4489,4872
" /> 
<polyline style="fill-rule:evenodd;"
points="11056,4950
11056,5451
11404,5102
11534,5016
11687,4985
13305,4985
13364,4896
13382,4884
13364,4872
13305,4784
11222,4784
11056,4950
" /> 
<polyline style="fill-rule:evenodd;"
points="4489,3872
4471,3884
4489,3896
4549,3985
6377,3985
6529,4016
6659,4102
7237,4681
7237,4400
6621,3784
4549,3784
4489,3872
" /> 
<polyline style="fill-rule:evenodd;"
points="10696,4060
10696,4181
10774,4102
10904,4016
11057,3985
13305,3985
13364,3896
13382,3884
13364,3872
13305,3784
10972,3784
10696,4060
" /> 
<polyline style="fill-rule:evenodd;"
points="4656,2861
4579,2977
4566,2985
6787,2985
6932,3014
6701,2784
4672,2784
4656,2861
" /> 
<polyline style="fill-rule:evenodd;"
points="11040,2985
13287,2985
13274,2977
13197,2861
13188,2814
11212,2814
11040,2985
" /> 
</g>
<g style="fill:#FFFFFF; fill-opacity:1.0; 
stroke:#FFFFFF; stroke-width:100; stroke-opacity:1; 
stroke-linecap:round; stroke-linejoin:round;">
</g>
<g style="fill:#FFFFFF; fill-opacity:1.0; 
stroke:#FFFFFF; stroke-width:0; stroke-opacity:1; 
stroke-linecap:round; stroke-linejoin:round;">
<circle cx="3927.21" cy="2384.84" r="200" /> 
</g>
<g style="fill:#FFFFFF; fill-opacity:1.0; 
stroke:#FFFFFF; stroke-width:19.685; stroke-opacity:1; 
stroke-linecap:round; stroke-linejoin:round;">
</g>
<g style="fill:#FFFFFF; fill-opacity:1.0; 
stroke:#FFFFFF; stroke-width:0; stroke-opacity:1; 
stroke-linecap:round; stroke-linejoin:round;">
<circle cx="3927.21" cy="3384.84" r="200" /> 
</g>
<g style="fill:#FFFFFF; fill-opacity:1.0; 
stroke:#FFFFFF; stroke-width:19.685; stroke-opacity:1; 
stroke-linecap:round; stroke-linejoin:round;">
</g>
<g style="fill:#FFFFFF; fill-opacity:1.0; 
stroke:#FFFFFF; stroke-width:0; stroke-opacity:1; 
stroke-linecap:round; stroke-linejoin:round;">
<circle cx="3927.21" cy="4384.84" r="200" /> 
</g>
<g style="fill:#FFFFFF; fill-opacity:1.0; 
stroke:#FFFFFF; stroke-width:19.685; stroke-opacity:1; 
stroke-linecap:round; stroke-linejoin:round;">
</g>
<g style="fill:#FFFFFF; fill-opacity:1.0; 
stroke:#FFFFFF; stroke-width:0; stroke-opacity:1; 
stroke-linecap:round; stroke-linejoin:round;">
<circle cx="3927.21" cy="5384.84" r="200" /> 
</g>
<g style="fill:#FFFFFF; fill-opacity:1.0; 
stroke:#FFFFFF; stroke-width:19.685; stroke-opacity:1; 
stroke-linecap:round; stroke-linejoin:round;">
</g>
<g style="fill:#FFFFFF; fill-opacity:1.0; 
stroke:#FFFFFF; stroke-width:0; stroke-opacity:1; 
stroke-linecap:round; stroke-linejoin:round;">
<circle cx="3927.21" cy="6384.84" r="200" /> 
</g>
<g style="fill:#FFFFFF; fill-opacity:1.0; 
stroke:#FFFFFF; stroke-width:19.685; stroke-opacity:1; 
stroke-linecap:round; stroke-linejoin:round;">
</g>
<g style="fill:#FFFFFF; fill-opacity:1.0; 
stroke:#FFFFFF; stroke-width:0; stroke-opacity:1; 
stroke-linecap:round; stroke-linejoin:round;">
<circle cx="3927.21" cy="7384.84" r="200" /> 
</g>
<g style="fill:#FFFFFF; fill-opacity:1.0; 
stroke:#FFFFFF; stroke-width:19.685; stroke-opacity:1; 
stroke-linecap:round; stroke-linejoin:round;">
</g>
<g style="fill:#FFFFFF; fill-opacity:1.0; 
stroke:#FFFFFF; stroke-width:0; stroke-opacity:1; 
stroke-linecap:round; stroke-linejoin:round;">
<circle cx="3927.21" cy="8384.84" r="200" /> 
</g>
<g style="fill:#FFFFFF; fill-opacity:1.0; 
stroke:#FFFFFF; stroke-width:19.685; stroke-opacity:1; 
stroke-linecap:round; stroke-linejoin:round;">
</g>
<g style="fill:#FFFFFF; fill-opacity:1.0; 
stroke:#FFFFFF; stroke-width:0; stroke-opacity:1; 
stroke-linecap:round; stroke-linejoin:round;">
<circle cx="3927.21" cy="9384.84" r="200" /> 
</g>
<g style="fill:#FFFFFF; fill-opacity:1.0; 
stroke:#FFFFFF; stroke-width:19.685; stroke-opacity:1; 
stroke-linecap:round; stroke-linejoin:round;">
</g>
<g style="fill:#FFFFFF; fill-opacity:1.0; 
stroke:#FFFFFF; stroke-width:0; stroke-opacity:1; 
stroke-linecap:round; stroke-linejoin:round;">
<circle cx="3927.21" cy="10384.8" r="200" /> 
</g>
<g style="fill:#FFFFFF; fill-opacity:1.0; 
stroke:#FFFFFF; stroke-width:19.685; stroke-opacity:1; 
stroke-linecap:round; stroke-linejoin:round;">
</g>
<g style="fill:#FFFFFF; fill-opacity:1.0; 
stroke:#FFFFFF; stroke-width:0; stroke-opacity:1; 
stroke-linecap:round; stroke-linejoin:round;">
<circle cx="3927.21" cy="11384.8" r="200" /> 
</g>
<g style="fill:#FFFFFF; fill-opacity:1.0; 
stroke:#FFFFFF; stroke-width:19.685; stroke-opacity:1; 
stroke-linecap:round; stroke-linejoin:round;">
</g>
<g style="fill:#FFFFFF; fill-opacity:1.0; 
stroke:#FFFFFF; stroke-width:0; stroke-opacity:1; 
stroke-linecap:round; stroke-linejoin:round;">
<circle cx="3927.21" cy="12384.8" r="200" /> 
</g>
<g style="fill:#FFFFFF; fill-opacity:1.0; 
stroke:#FFFFFF; stroke-width:19.685; stroke-opacity:1; 
stroke-linecap:round; stroke-linejoin:round;">
</g>
<g style="fill:#FFFFFF; fill-opacity:1.0; 
stroke:#FFFFFF; stroke-width:0; stroke-opacity:1; 
stroke-linecap:round; stroke-linejoin:round;">
<circle cx="3927.21" cy="13384.8" r="200" /> 
</g>
<g style="fill:#FFFFFF; fill-opacity:1.0; 
stroke:#FFFFFF; stroke-width:19.685; stroke-opacity:1; 
stroke-linecap:round; stroke-linejoin:round;">
</g>
<g style="fill:#FFFFFF; fill-opacity:1.0; 
stroke:#FFFFFF; stroke-width:0; stroke-opacity:1; 
stroke-linecap:round; stroke-linejoin:round;">
<circle cx="3927.21" cy="14384.8" r="200" /> 
</g>
<g style="fill:#FFFFFF; fill-opacity:1.0; 
stroke:#FFFFFF; stroke-width:19.685; stroke-opacity:1; 
stroke-linecap:round; stroke-linejoin:round;">
</g>
<g style="fill:#FFFFFF; fill-opacity:1.0; 
stroke:#FFFFFF; stroke-width:0; stroke-opacity:1; 
stroke-linecap:round; stroke-linejoin:round;">
<circle cx="3927.21" cy="15384.8" r="200" /> 
</g>
<g style="fill:#FFFFFF; fill-opacity:1.0; 
stroke:#FFFFFF; stroke-width:19.685; stroke-opacity:1; 
stroke-linecap:round; stroke-linejoin:round;">
</g>
<g style="fill:#FFFFFF; fill-opacity:1.0; 
stroke:#FFFFFF; stroke-width:0; stroke-opacity:1; 
stroke-linecap:round; stroke-linejoin:round;">
<circle cx="3927.21" cy="16384.8" r="200" /> 
</g>
<g style="fill:#FFFFFF; fill-opacity:1.0; 
stroke:#FFFFFF; stroke-width:19.685; stroke-opacity:1; 
stroke-linecap:round; stroke-linejoin:round;">
</g>
<g style="fill:#FFFFFF; fill-opacity:1.0; 
stroke:#FFFFFF; stroke-width:0; stroke-opacity:1; 
stroke-linecap:round; stroke-linejoin:round;">
<circle cx="3927.21" cy="17384.8" r="200" /> 
</g>
<g style="fill:#FFFFFF; fill-opacity:1.0; 
stroke:#FFFFFF; stroke-width:19.685; stroke-opacity:1; 
stroke-linecap:round; stroke-linejoin:round;">
</g>
<g style="fill:#FFFFFF; fill-opacity:1.0; 
stroke:#FFFFFF; stroke-width:0; stroke-opacity:1; 
stroke-linecap:round; stroke-linejoin:round;">
<circle cx="3927.21" cy="18384.8" r="200" /> 
</g>
<g style="fill:#FFFFFF; fill-opacity:1.0; 
stroke:#FFFFFF; stroke-width:19.685; stroke-opacity:1; 
stroke-linecap:round; stroke-linejoin:round;">
</g>
<g style="fill:#FFFFFF; fill-opacity:1.0; 
stroke:#FFFFFF; stroke-width:0; stroke-opacity:1; 
stroke-linecap:round; stroke-linejoin:round;">
<circle cx="3927.21" cy="19384.8" r="200" /> 
</g>
<g style="fill:#FFFFFF; fill-opacity:1.0; 
stroke:#FFFFFF; stroke-width:19.685; stroke-opacity:1; 
stroke-linecap:round; stroke-linejoin:round;">
</g>
<g style="fill:#FFFFFF; fill-opacity:1.0; 
stroke:#FFFFFF; stroke-width:0; stroke-opacity:1; 
stroke-linecap:round; stroke-linejoin:round;">
<circle cx="3927.21" cy="20384.8" r="200" /> 
</g>
<g style="fill:#FFFFFF; fill-opacity:1.0; 
stroke:#FFFFFF; stroke-width:19.685; stroke-opacity:1; 
stroke-linecap:round; stroke-linejoin:round;">
</g>
<g style="fill:#FFFFFF; fill-opacity:1.0; 
stroke:#FFFFFF; stroke-width:0; stroke-opacity:1; 
stroke-linecap:round; stroke-linejoin:round;">
<circle cx="3927.21" cy="21384.8" r="200" /> 
</g>
<g style="fill:#FFFFFF; fill-opacity:1.0; 
stroke:#FFFFFF; stroke-width:19.685; stroke-opacity:1; 
stroke-linecap:round; stroke-linejoin:round;">
</g>
<g style="fill:#FFFFFF; fill-opacity:1.0; 
stroke:#FFFFFF; stroke-width:0; stroke-opacity:1; 
stroke-linecap:round; stroke-linejoin:round;">
<circle cx="3927.21" cy="22384.8" r="200" /> 
</g>
<g style="fill:#FFFFFF; fill-opacity:1.0; 
stroke:#FFFFFF; stroke-width:19.685; stroke-opacity:1; 
stroke-linecap:round; stroke-linejoin:round;">
</g>
<g style="fill:#FFFFFF; fill-opacity:1.0; 
stroke:#FFFFFF; stroke-width:0; stroke-opacity:1; 
stroke-linecap:round; stroke-linejoin:round;">
<circle cx="3927.21" cy="23384.8" r="200" /> 
</g>
<g style="fill:#FFFFFF; fill-opacity:1.0; 
stroke:#FFFFFF; stroke-width:19.685; stroke-opacity:1; 
stroke-linecap:round; stroke-linejoin:round;">
</g>
<g style="fill:#FFFFFF; fill-opacity:1.0; 
stroke:#FFFFFF; stroke-width:0; stroke-opacity:1; 
stroke-linecap:round; stroke-linejoin:round;">
<circle cx="13927.2" cy="2384.84" r="200" /> 
</g>
<g style="fill:#FFFFFF; fill-opacity:1.0; 
stroke:#FFFFFF; stroke-width:19.685; stroke-opacity:1; 
stroke-linecap:round; stroke-linejoin:round;">
</g>
<g style="fill:#FFFFFF; fill-opacity:1.0; 
stroke:#FFFFFF; stroke-width:0; stroke-opacity:1; 
stroke-linecap:round; stroke-linejoin:round;">
<circle cx="13927.2" cy="3384.84" r="200" /> 
</g>
<g style="fill:#FFFFFF; fill-opacity:1.0; 
stroke:#FFFFFF; stroke-width:19.685; stroke-opacity:1; 
stroke-linecap:round; stroke-linejoin:round;">
</g>
<g style="fill:#FFFFFF; fill-opacity:1.0; 
stroke:#FFFFFF; stroke-width:0; stroke-opacity:1; 
stroke-linecap:round; stroke-linejoin:round;">
<circle cx="13927.2" cy="4384.84" r="200" /> 
</g>
<g style="fill:#FFFFFF; fill-opacity:1.0; 
stroke:#FFFFFF; stroke-width:19.685; stroke-opacity:1; 
stroke-linecap:round; stroke-linejoin:round;">
</g>
<g style="fill:#FFFFFF; fill-opacity:1.0; 
stroke:#FFFFFF; stroke-width:0; stroke-opacity:1; 
stroke-linecap:round; stroke-linejoin:round;">
<circle cx="13927.2" cy="5384.84" r="200" /> 
</g>
<g style="fill:#FFFFFF; fill-opacity:1.0; 
stroke:#FFFFFF; stroke-width:19.685; stroke-opacity:1; 
stroke-linecap:round; stroke-linejoin:round;">
</g>
<g style="fill:#FFFFFF; fill-opacity:1.0; 
stroke:#FFFFFF; stroke-width:0; stroke-opacity:1; 
stroke-linecap:round; stroke-linejoin:round;">
<circle cx="13927.2" cy="6384.84" r="200" /> 
</g>
<g style="fill:#FFFFFF; fill-opacity:1.0; 
stroke:#FFFFFF; stroke-width:19.685; stroke-opacity:1; 
stroke-linecap:round; stroke-linejoin:round;">
</g>
<g style="fill:#FFFFFF; fill-opacity:1.0; 
stroke:#FFFFFF; stroke-width:0; stroke-opacity:1; 
stroke-linecap:round; stroke-linejoin:round;">
<circle cx="13927.2" cy="7384.84" r="200" /> 
</g>
<g style="fill:#FFFFFF; fill-opacity:1.0; 
stroke:#FFFFFF; stroke-width:19.685; stroke-opacity:1; 
stroke-linecap:round; stroke-linejoin:round;">
</g>
<g style="fill:#FFFFFF; fill-opacity:1.0; 
stroke:#FFFFFF; stroke-width:0; stroke-opacity:1; 
stroke-linecap:round; stroke-linejoin:round;">
<circle cx="13927.2" cy="8384.84" r="200" /> 
</g>
<g style="fill:#FFFFFF; fill-opacity:1.0; 
stroke:#FFFFFF; stroke-width:19.685; stroke-opacity:1; 
stroke-linecap:round; stroke-linejoin:round;">
</g>
<g style="fill:#FFFFFF; fill-opacity:1.0; 
stroke:#FFFFFF; stroke-width:0; stroke-opacity:1; 
stroke-linecap:round; stroke-linejoin:round;">
<circle cx="13927.2" cy="9384.84" r="200" /> 
</g>
<g style="fill:#FFFFFF; fill-opacity:1.0; 
stroke:#FFFFFF; stroke-width:19.685; stroke-opacity:1; 
stroke-linecap:round; stroke-linejoin:round;">
</g>
<g style="fill:#FFFFFF; fill-opacity:1.0; 
stroke:#FFFFFF; stroke-width:0; stroke-opacity:1; 
stroke-linecap:round; stroke-linejoin:round;">
<circle cx="13927.2" cy="10384.8" r="200" /> 
</g>
<g style="fill:#FFFFFF; fill-opacity:1.0; 
stroke:#FFFFFF; stroke-width:19.685; stroke-opacity:1; 
stroke-linecap:round; stroke-linejoin:round;">
</g>
<g style="fill:#FFFFFF; fill-opacity:1.0; 
stroke:#FFFFFF; stroke-width:0; stroke-opacity:1; 
stroke-linecap:round; stroke-linejoin:round;">
<circle cx="13927.2" cy="11384.8" r="200" /> 
</g>
<g style="fill:#FFFFFF; fill-opacity:1.0; 
stroke:#FFFFFF; stroke-width:19.685; stroke-opacity:1; 
stroke-linecap:round; stroke-linejoin:round;">
</g>
<g style="fill:#FFFFFF; fill-opacity:1.0; 
stroke:#FFFFFF; stroke-width:0; stroke-opacity:1; 
stroke-linecap:round; stroke-linejoin:round;">
<circle cx="13927.2" cy="12384.8" r="200" /> 
</g>
<g style="fill:#FFFFFF; fill-opacity:1.0; 
stroke:#FFFFFF; stroke-width:19.685; stroke-opacity:1; 
stroke-linecap:round; stroke-linejoin:round;">
</g>
<g style="fill:#FFFFFF; fill-opacity:1.0; 
stroke:#FFFFFF; stroke-width:0; stroke-opacity:1; 
stroke-linecap:round; stroke-linejoin:round;">
<circle cx="13927.2" cy="13384.8" r="200" /> 
</g>
<g style="fill:#FFFFFF; fill-opacity:1.0; 
stroke:#FFFFFF; stroke-width:19.685; stroke-opacity:1; 
stroke-linecap:round; stroke-linejoin:round;">
</g>
<g style="fill:#FFFFFF; fill-opacity:1.0; 
stroke:#FFFFFF; stroke-width:0; stroke-opacity:1; 
stroke-linecap:round; stroke-linejoin:round;">
<circle cx="13927.2" cy="14384.8" r="200" /> 
</g>
<g style="fill:#FFFFFF; fill-opacity:1.0; 
stroke:#FFFFFF; stroke-width:19.685; stroke-opacity:1; 
stroke-linecap:round; stroke-linejoin:round;">
</g>
<g style="fill:#FFFFFF; fill-opacity:1.0; 
stroke:#FFFFFF; stroke-width:0; stroke-opacity:1; 
stroke-linecap:round; stroke-linejoin:round;">
<circle cx="13927.2" cy="15384.8" r="200" /> 
</g>
<g style="fill:#FFFFFF; fill-opacity:1.0; 
stroke:#FFFFFF; stroke-width:19.685; stroke-opacity:1; 
stroke-linecap:round; stroke-linejoin:round;">
</g>
<g style="fill:#FFFFFF; fill-opacity:1.0; 
stroke:#FFFFFF; stroke-width:0; stroke-opacity:1; 
stroke-linecap:round; stroke-linejoin:round;">
<circle cx="13927.2" cy="16384.8" r="200" /> 
</g>
<g style="fill:#FFFFFF; fill-opacity:1.0; 
stroke:#FFFFFF; stroke-width:19.685; stroke-opacity:1; 
stroke-linecap:round; stroke-linejoin:round;">
</g>
<g style="fill:#FFFFFF; fill-opacity:1.0; 
stroke:#FFFFFF; stroke-width:0; stroke-opacity:1; 
stroke-linecap:round; stroke-linejoin:round;">
<circle cx="13927.2" cy="17384.8" r="200" /> 
</g>
<g style="fill:#FFFFFF; fill-opacity:1.0; 
stroke:#FFFFFF; stroke-width:19.685; stroke-opacity:1; 
stroke-linecap:round; stroke-linejoin:round;">
</g>
<g style="fill:#FFFFFF; fill-opacity:1.0; 
stroke:#FFFFFF; stroke-width:0; stroke-opacity:1; 
stroke-linecap:round; stroke-linejoin:round;">
<circle cx="13927.2" cy="18384.8" r="200" /> 
</g>
<g style="fill:#FFFFFF; fill-opacity:1.0; 
stroke:#FFFFFF; stroke-width:19.685; stroke-opacity:1; 
stroke-linecap:round; stroke-linejoin:round;">
</g>
<g style="fill:#FFFFFF; fill-opacity:1.0; 
stroke:#FFFFFF; stroke-width:0; stroke-opacity:1; 
stroke-linecap:round; stroke-linejoin:round;">
<circle cx="13927.2" cy="19384.8" r="200" /> 
</g>
<g style="fill:#FFFFFF; fill-opacity:1.0; 
stroke:#FFFFFF; stroke-width:19.685; stroke-opacity:1; 
stroke-linecap:round; stroke-linejoin:round;">
</g>
<g style="fill:#FFFFFF; fill-opacity:1.0; 
stroke:#FFFFFF; stroke-width:0; stroke-opacity:1; 
stroke-linecap:round; stroke-linejoin:round;">
<circle cx="13927.2" cy="20384.8" r="200" /> 
</g>
<g style="fill:#FFFFFF; fill-opacity:1.0; 
stroke:#FFFFFF; stroke-width:19.685; stroke-opacity:1; 
stroke-linecap:round; stroke-linejoin:round;">
</g>
<g style="fill:#FFFFFF; fill-opacity:1.0; 
stroke:#FFFFFF; stroke-width:0; stroke-opacity:1; 
stroke-linecap:round; stroke-linejoin:round;">
<circle cx="13927.2" cy="21384.8" r="200" /> 
</g>
<g style="fill:#FFFFFF; fill-opacity:1.0; 
stroke:#FFFFFF; stroke-width:19.685; stroke-opacity:1; 
stroke-linecap:round; stroke-linejoin:round;">
</g>
<g style="fill:#FFFFFF; fill-opacity:1.0; 
stroke:#FFFFFF; stroke-width:0; stroke-opacity:1; 
stroke-linecap:round; stroke-linejoin:round;">
<circle cx="13927.2" cy="22384.8" r="200" /> 
</g>
<g style="fill:#FFFFFF; fill-opacity:1.0; 
stroke:#FFFFFF; stroke-width:19.685; stroke-opacity:1; 
stroke-linecap:round; stroke-linejoin:round;">
</g>
<g style="fill:#FFFFFF; fill-opacity:1.0; 
stroke:#FFFFFF; stroke-width:0; stroke-opacity:1; 
stroke-linecap:round; stroke-linejoin:round;">
<circle cx="13927.2" cy="23384.8" r="200" /> 
</g>
<g style="fill:#FFFFFF; fill-opacity:1.0; 
stroke:#FFFFFF; stroke-width:19.685; stroke-opacity:1; 
stroke-linecap:round; stroke-linejoin:round;">
</g>
<g style="fill:#000000; fill-opacity:1.0; 
stroke:#000000; stroke-width:19.685; stroke-opacity:1; 
stroke-linecap:round; stroke-linejoin:round;">
</g>
<g style="fill:#000000; fill-opacity:1.0; 
stroke:#000000; stroke-width:59.0551; stroke-opacity:1; 
stroke-linecap:round; stroke-linejoin:round;">
</g>
<g style="fill:#000000; fill-opacity:0.0; 
stroke:#000000; stroke-width:59.0551; stroke-opacity:1; 
stroke-linecap:round; stroke-linejoin:round;">
<path d="M2292 1533
L15525 1533
" />
<path d="M2292 24242
L2292 1533
" />
<path d="M15515 24242
L2292 24242
" />
<path d="M15515 1588
L15515 24242
" />
</g> 
</svg>
